<svg width="27" height="27" viewBox="0 0 27 27" fill="none" xmlns="http://www.w3.org/2000/svg">
<g clip-path="url(#clip0_631_64654)">
<path d="M4.23515 6.39667C3.74915 5.05229 5.0519 3.74954 6.39628 4.23667L22.8269 10.1789C24.1758 10.6672 24.3389 12.5077 23.098 13.2265L17.8533 16.2629L13.1699 11.5795C12.9577 11.3746 12.6735 11.2612 12.3786 11.2638C12.0836 11.2663 11.8014 11.3847 11.5929 11.5932C11.3843 11.8018 11.266 12.084 11.2634 12.379C11.2608 12.6739 11.3742 12.9581 11.5792 13.1703L16.2625 17.8537L13.225 23.0984C12.5073 24.3393 10.6668 24.175 10.1785 22.8273L4.23515 6.39667Z" fill="white"/>
</g>
<defs>
<clipPath id="clip0_631_64654">
<rect width="27" height="27" fill="white" transform="matrix(-1 0 0 1 27 0)"/>
</clipPath>
</defs>
</svg>
